# Blender v2.62 (sub 0) OBJ File: ''
# www.blender.org
v -0.125238 0.000000 -0.187857
v -0.125238 0.187857 -0.187857
v 0.125238 0.187857 -0.187857
v 0.125238 0.187857 -0.187857
v 0.125238 0.000000 -0.187857
v -0.125238 0.000000 -0.187857
v 0.125238 0.187857 0.187857
v -0.125238 0.187857 0.187857
v -0.125238 -0.000000 0.187857
v -0.125238 -0.000000 0.187857
v 0.125238 -0.000000 0.187857
v 0.125238 0.187857 0.187857
v 0.125238 0.187857 0.187857
v 0.125238 -0.000000 0.187857
v 0.125238 0.000000 -0.187857
v 0.125238 0.000000 -0.187857
v 0.125238 0.187857 -0.187857
v 0.125238 0.187857 0.187857
v -0.125238 0.000000 -0.187857
v -0.125238 -0.000000 0.187857
v -0.125238 0.187857 0.187857
v -0.125238 0.187857 0.187857
v -0.125238 0.187857 -0.187857
v -0.125238 0.000000 -0.187857
v 0.000000 0.262968 0.219167
v 0.000000 0.262969 -0.219166
v 0.156548 0.171288 -0.219166
v 0.156548 0.171288 0.219167
v -0.156548 0.171288 0.219167
v -0.156548 0.171288 -0.219166
v 0.156548 0.174419 -0.219166
v 0.000000 0.266099 -0.219166
v 0.000000 0.266099 0.219167
v 0.156548 0.174419 0.219167
v -0.156548 0.174419 -0.219166
v -0.156548 0.174419 0.219167
v 0.000000 0.259869 -0.187857
v 0.125238 0.187857 -0.187857
v -0.125238 0.187857 -0.187857
v -0.125238 0.187857 0.187857
v 0.125238 0.187857 0.187857
v 0.000000 0.259869 0.187857
v -0.003800 0.220449 -0.135492
v -0.003800 0.220449 -0.166299
v -0.003800 0.289357 -0.135492
v -0.003800 0.289357 -0.166299
v -0.038338 0.220449 -0.166299
v -0.038338 0.220449 -0.135492
v -0.038338 0.289357 -0.166299
v -0.038338 0.289357 -0.135492
vt 0.216151 0.037525
vt 0.215558 0.119191
vt 0.042291 0.118558
vt 0.042884 0.036892
vt 0.679019 0.118558
vt 0.505752 0.119191
vt 0.505159 0.037525
vt 0.678426 0.036892
vt 0.968633 0.036892
vt 0.968040 0.118558
vt 0.081601 0.560564
vt 0.518399 0.560564
vt 0.573509 0.240449
vt 0.026491 0.240449
vt 0.573509 0.251413
vt 0.518399 0.573380
vt 0.081601 0.573380
vt 0.026491 0.251413
vt 0.128525 0.150171
vt 0.042350 0.118549
vt 0.215617 0.119182
vt 0.592844 0.150180
vt 0.678297 0.645927
vt 0.597367 0.645927
vt 0.676517 0.453427
vt 0.599122 0.453427
vt 0.837051 0.644364
vt 0.763211 0.644364
vt 0.838664 0.451865
vt 0.761555 0.451865
vt 0.931334 0.645927
vt 0.933089 0.453427
vt 0.850649 0.669874
vt 0.776217 0.744305
vt 0.776217 0.669874
vt 0.850649 0.744305
vn 0.000000 0.000000 -1.000000
vn 0.000000 -0.000000 1.000000
vn 1.000000 0.000000 -0.000000
vn -1.000000 0.000000 -0.000000
vn -0.505355 -0.862912 -0.000000
vn 0.505355 -0.862912 -0.000000
vn 0.505355 0.862912 0.000000
vn -0.505355 0.862912 0.000000
vn -0.000000 1.000000 0.000000
s off
f 1/1/1 2/2/1 3/3/1
f 4/3/1 5/4/1 6/1/1
f 7/5/2 8/6/2 9/7/2
f 10/7/2 11/8/2 12/5/2
f 13/5/3 14/8/3 15/9/3
f 16/9/3 17/10/3 18/5/3
f 19/1/4 20/7/4 21/6/4
f 22/6/4 23/2/4 24/1/4
f 25/11/5 26/12/5 27/13/5
f 27/13/5 28/14/5 25/11/5
f 29/14/6 30/13/6 26/12/6
f 26/12/6 25/11/6 29/14/6
f 31/15/7 32/16/7 33/17/7
f 33/17/7 34/18/7 31/15/7
f 32/16/8 35/15/8 36/18/8
f 36/18/8 33/17/8 32/16/8
f 36/18/2 29/14/2 25/11/2
f 25/11/2 33/17/2 36/18/2
f 33/17/2 25/11/2 28/14/2
f 28/14/2 34/18/2 33/17/2
f 26/12/1 30/13/1 35/15/1
f 35/15/1 32/16/1 26/12/1
f 27/13/1 26/12/1 32/16/1
f 32/16/1 31/15/1 27/13/1
f 34/18/3 28/14/3 27/13/3
f 27/13/3 31/15/3 34/18/3
f 30/13/4 29/14/4 36/18/4
f 36/18/4 35/15/4 30/13/4
f 37/19/1 38/20/1 39/21/1
f 40/6/2 41/5/2 42/22/2
f 43/23/3 44/24/3 45/25/3
f 44/24/3 46/26/3 45/25/3
f 47/27/4 48/28/4 49/29/4
f 48/28/4 50/30/4 49/29/4
f 45/25/2 48/28/2 43/23/2
f 45/25/2 50/30/2 48/28/2
f 49/29/1 44/31/1 47/27/1
f 49/29/1 46/32/1 44/31/1
f 45/33/9 49/34/9 50/35/9
f 45/33/9 46/36/9 49/34/9
