# Blender v2.62 (sub 0) OBJ File: 'turret.blend'
# www.blender.org
o Cube.001
v 1.539098 0.137981 -0.086988
v 1.539098 0.137981 -0.067295
v 0.314785 0.137981 -0.067295
v 0.314785 0.137981 -0.086988
v 1.539099 0.163883 -0.086987
v 1.539098 0.163883 -0.067294
v 0.314785 0.163883 -0.067295
v 0.314785 0.163883 -0.086988
vt 0.472865 0.000446
vt 0.618195 0.000000
vt 0.663475 14.759503
vt 0.518143 14.759946
vt 0.854080 0.000435
vt 0.808805 14.759943
vt 0.663475 14.759501
vt 0.708748 0.000000
vt 0.999409 0.191598
vt 0.999993 0.382749
vt 0.854661 0.383195
vt 0.854080 0.192046
vt 0.472865 14.759503
vt 0.281713 14.760087
vt 0.236433 0.000584
vt 0.427586 0.000000
vt 0.999413 0.000000
vt 1.000000 0.191151
vt 0.854669 0.191598
vt 0.854080 0.000445
vt 0.000000 0.000582
vt 0.191152 0.000000
vt 0.236433 14.759502
vt 0.045281 14.760090
vn 0.000000 -1.000000 0.000000
vn 0.000000 1.000000 0.000000
vn 1.000000 0.000005 0.000030
vn -0.000000 -0.000009 1.000000
vn -1.000000 -0.000010 -0.000023
vn 0.000000 0.000016 -1.000000
s off
f 1/1/1 2/2/1 3/3/1
f 1/1/1 3/3/1 4/4/1
f 5/5/2 8/6/2 7/7/2
f 5/5/2 7/7/2 6/8/2
f 1/9/3 5/10/3 6/11/3
f 1/9/3 6/11/3 2/12/3
f 2/13/4 6/14/4 7/15/4
f 2/13/4 7/15/4 3/16/4
f 3/17/5 7/18/5 8/19/5
f 3/17/5 8/19/5 4/20/5
f 5/21/6 1/22/6 4/23/6
f 5/21/6 4/23/6 8/24/6
o Cube
v 1.539098 0.137981 0.071326
v 1.539098 0.137981 0.091019
v 0.314785 0.137981 0.091019
v 0.314785 0.137981 0.071325
v 1.539099 0.163883 0.071326
v 1.539098 0.163883 0.091020
v 0.314785 0.163883 0.091019
v 0.314785 0.163883 0.071326
vt 0.472865 0.000446
vt 0.618195 0.000000
vt 0.663475 14.759503
vt 0.518143 14.759946
vt 0.854080 0.000435
vt 0.808805 14.759943
vt 0.663475 14.759501
vt 0.708748 0.000000
vt 0.999409 0.191598
vt 0.999993 0.382749
vt 0.854661 0.383195
vt 0.854080 0.192046
vt 0.472865 14.759503
vt 0.281713 14.760087
vt 0.236433 0.000584
vt 0.427586 0.000000
vt 0.999413 0.000000
vt 1.000000 0.191151
vt 0.854669 0.191598
vt 0.854080 0.000445
vt 0.000000 0.000582
vt 0.191152 0.000000
vt 0.236433 14.759502
vt 0.045281 14.760090
s off
f 9/25/1 10/26/1 11/27/1
f 9/25/1 11/27/1 12/28/1
f 13/29/2 16/30/2 15/31/2
f 13/29/2 15/31/2 14/32/2
f 9/33/3 13/34/3 14/35/3
f 9/33/3 14/35/3 10/36/3
f 10/37/4 14/38/4 15/39/4
f 10/37/4 15/39/4 11/40/4
f 11/41/5 15/42/5 16/43/5
f 11/41/5 16/43/5 12/44/5
f 13/45/6 9/46/6 12/47/6
f 13/45/6 12/47/6 16/48/6
